M48
; DRILL file {KiCad 9.0.3} date 2026-01-19T22:36:23+0200
; FORMAT={-:-/ absolute / metric / decimal}
; #@! TF.CreationDate,2026-01-19T22:36:23+02:00
; #@! TF.GenerationSoftware,Kicad,Pcbnew,9.0.3
; #@! TF.FileFunction,Plated,1,2,PTH
FMAT,2
METRIC
; #@! TA.AperFunction,Plated,PTH,ComponentDrill
T1C0.200
; #@! TA.AperFunction,Plated,PTH,ViaDrill
T2C0.300
; #@! TA.AperFunction,Plated,PTH,ComponentDrill
T3C0.500
; #@! TA.AperFunction,Plated,PTH,ComponentDrill
T4C1.000
; #@! TA.AperFunction,Plated,PTH,ComponentDrill
T5C2.200
%
G90
G05
T1
X151.28Y-60.925
X151.28Y-62.125
X151.28Y-63.325
X152.48Y-60.925
X152.48Y-62.125
X152.48Y-63.325
X153.68Y-60.925
X153.68Y-62.125
X153.68Y-63.325
X154.88Y-60.925
X154.88Y-62.125
X154.88Y-63.325
X156.08Y-60.925
X156.08Y-62.125
X156.08Y-63.325
X156.15Y-95.6
X156.15Y-96.8
X156.15Y-98.0
X157.28Y-60.925
X157.28Y-62.125
X157.28Y-63.325
X157.35Y-95.6
X157.35Y-96.8
X157.35Y-98.0
X158.48Y-60.925
X158.48Y-62.125
X158.48Y-63.325
X158.55Y-95.6
X158.55Y-96.8
X158.55Y-98.0
X159.68Y-60.925
X159.68Y-62.125
X159.68Y-63.325
X159.75Y-95.6
X159.75Y-96.8
X159.75Y-98.0
X160.95Y-95.6
X160.95Y-96.8
X160.95Y-98.0
X162.15Y-95.6
X162.15Y-96.8
X162.15Y-98.0
X163.35Y-95.6
X163.35Y-96.8
X163.35Y-98.0
X164.55Y-95.6
X164.55Y-96.8
X164.55Y-98.0
X176.35Y-87.45
X176.35Y-88.65
X176.35Y-89.85
X176.35Y-91.05
X176.35Y-92.25
X176.35Y-93.45
X176.35Y-94.65
X176.35Y-95.85
X177.55Y-87.45
X177.55Y-88.65
X177.55Y-89.85
X177.55Y-91.05
X177.55Y-92.25
X177.55Y-93.45
X177.55Y-94.65
X177.55Y-95.85
X178.75Y-87.45
X178.75Y-88.65
X178.75Y-89.85
X178.75Y-91.05
X178.75Y-92.25
X178.75Y-93.45
X178.75Y-94.65
X178.75Y-95.85
T2
X143.75Y-68.075
X145.1Y-67.27
X146.275Y-70.62
X149.5Y-78.0
X149.65Y-68.275
X149.95Y-86.95
X150.175Y-107.4
X150.35Y-70.5
X150.6Y-81.425
X150.65Y-82.675
X151.052Y-90.447
X153.825Y-78.65
X154.125Y-72.702
X154.375Y-91.047
X155.35Y-76.825
X155.475Y-91.475
X155.675Y-86.125
X155.9Y-117.675
X156.1Y-74.55
X156.125Y-77.85
X158.4Y-117.5
X158.95Y-90.075
X159.1Y-86.2
X159.525Y-85.35
X160.1Y-89.675
X160.895Y-117.375
X161.85Y-87.725
X163.6Y-83.05
X164.65Y-103.0
X166.008Y-53.469
X172.2Y-92.6
X172.2Y-95.05
X172.225Y-93.85
X175.325Y-79.625
X183.175Y-100.975
T3
X138.7Y-87.675
X138.7Y-89.825
X138.705Y-85.55
X138.775Y-82.65
X138.78Y-80.525
X138.8Y-78.375
X139.5Y-62.925
X139.525Y-65.075
X152.875Y-50.375
X155.025Y-50.35
X157.175Y-50.375
X158.005Y-110.45
X159.875Y-75.125
X160.205Y-110.425
X162.0Y-75.125
X162.405Y-110.45
X189.05Y-88.925
X189.05Y-93.225
X189.075Y-91.05
T4
X153.2Y-122.45
X155.74Y-122.45
X158.28Y-122.45
X160.82Y-122.45
X163.36Y-122.45
T5
X133.2Y-45.175
X133.225Y-126.65
X193.45Y-45.225
X193.475Y-126.7
M30
