%TF.GenerationSoftware,KiCad,Pcbnew,9.0.3*%
%TF.CreationDate,2026-01-19T22:35:58+02:00*%
%TF.ProjectId,GimbalBoard,47696d62-616c-4426-9f61-72642e6b6963,rev?*%
%TF.SameCoordinates,Original*%
%TF.FileFunction,Paste,Top*%
%TF.FilePolarity,Positive*%
%FSLAX46Y46*%
G04 Gerber Fmt 4.6, Leading zero omitted, Abs format (unit mm)*
G04 Created by KiCad (PCBNEW 9.0.3) date 2026-01-19 22:35:58*
%MOMM*%
%LPD*%
G01*
G04 APERTURE LIST*
G04 Aperture macros list*
%AMRoundRect*
0 Rectangle with rounded corners*
0 $1 Rounding radius*
0 $2 $3 $4 $5 $6 $7 $8 $9 X,Y pos of 4 corners*
0 Add a 4 corners polygon primitive as box body*
4,1,4,$2,$3,$4,$5,$6,$7,$8,$9,$2,$3,0*
0 Add four circle primitives for the rounded corners*
1,1,$1+$1,$2,$3*
1,1,$1+$1,$4,$5*
1,1,$1+$1,$6,$7*
1,1,$1+$1,$8,$9*
0 Add four rect primitives between the rounded corners*
20,1,$1+$1,$2,$3,$4,$5,0*
20,1,$1+$1,$4,$5,$6,$7,0*
20,1,$1+$1,$6,$7,$8,$9,0*
20,1,$1+$1,$8,$9,$2,$3,0*%
G04 Aperture macros list end*
%ADD10C,0.010000*%
%ADD11RoundRect,0.079500X0.100500X-0.079500X0.100500X0.079500X-0.100500X0.079500X-0.100500X-0.079500X0*%
%ADD12RoundRect,0.079500X-0.100500X0.079500X-0.100500X-0.079500X0.100500X-0.079500X0.100500X0.079500X0*%
%ADD13RoundRect,0.079500X-0.079500X-0.100500X0.079500X-0.100500X0.079500X0.100500X-0.079500X0.100500X0*%
%ADD14RoundRect,0.250000X-0.500000X0.750000X-0.500000X-0.750000X0.500000X-0.750000X0.500000X0.750000X0*%
%ADD15RoundRect,0.045000X0.705000X0.180000X-0.705000X0.180000X-0.705000X-0.180000X0.705000X-0.180000X0*%
%ADD16RoundRect,0.250000X-1.050000X-0.550000X1.050000X-0.550000X1.050000X0.550000X-1.050000X0.550000X0*%
%ADD17RoundRect,0.225000X-0.250000X0.225000X-0.250000X-0.225000X0.250000X-0.225000X0.250000X0.225000X0*%
%ADD18RoundRect,0.250000X-0.550000X1.050000X-0.550000X-1.050000X0.550000X-1.050000X0.550000X1.050000X0*%
%ADD19RoundRect,0.225000X0.250000X-0.225000X0.250000X0.225000X-0.250000X0.225000X-0.250000X-0.225000X0*%
%ADD20RoundRect,0.075000X-0.662500X-0.075000X0.662500X-0.075000X0.662500X0.075000X-0.662500X0.075000X0*%
%ADD21RoundRect,0.075000X-0.075000X-0.662500X0.075000X-0.662500X0.075000X0.662500X-0.075000X0.662500X0*%
%ADD22RoundRect,0.250000X1.050000X0.550000X-1.050000X0.550000X-1.050000X-0.550000X1.050000X-0.550000X0*%
%ADD23RoundRect,0.045000X0.180000X-0.705000X0.180000X0.705000X-0.180000X0.705000X-0.180000X-0.705000X0*%
%ADD24RoundRect,0.225000X-0.225000X-0.250000X0.225000X-0.250000X0.225000X0.250000X-0.225000X0.250000X0*%
%ADD25RoundRect,0.079500X0.079500X0.100500X-0.079500X0.100500X-0.079500X-0.100500X0.079500X-0.100500X0*%
%ADD26RoundRect,0.045000X-0.180000X0.705000X-0.180000X-0.705000X0.180000X-0.705000X0.180000X0.705000X0*%
%ADD27RoundRect,0.150000X0.512500X0.150000X-0.512500X0.150000X-0.512500X-0.150000X0.512500X-0.150000X0*%
%ADD28RoundRect,0.225000X0.225000X0.250000X-0.225000X0.250000X-0.225000X-0.250000X0.225000X-0.250000X0*%
%ADD29RoundRect,0.087500X-0.187500X-0.087500X0.187500X-0.087500X0.187500X0.087500X-0.187500X0.087500X0*%
%ADD30RoundRect,0.087500X-0.087500X-0.187500X0.087500X-0.187500X0.087500X0.187500X-0.087500X0.187500X0*%
G04 APERTURE END LIST*
D10*
%TO.C,U6*%
X179058000Y-89061000D02*
X179060000Y-89061000D01*
X179063000Y-89062000D01*
X179065000Y-89062000D01*
X179068000Y-89063000D01*
X179070000Y-89064000D01*
X179073000Y-89065000D01*
X179075000Y-89067000D01*
X179077000Y-89068000D01*
X179079000Y-89070000D01*
X179081000Y-89071000D01*
X179083000Y-89073000D01*
X179085000Y-89075000D01*
X179087000Y-89077000D01*
X179089000Y-89079000D01*
X179090000Y-89081000D01*
X179092000Y-89083000D01*
X179093000Y-89085000D01*
X179095000Y-89087000D01*
X179096000Y-89090000D01*
X179097000Y-89092000D01*
X179098000Y-89095000D01*
X179098000Y-89097000D01*
X179099000Y-89100000D01*
X179099000Y-89102000D01*
X179100000Y-89105000D01*
X179100000Y-89107000D01*
X179100000Y-89110000D01*
X179100000Y-94190000D01*
X179100000Y-94193000D01*
X179100000Y-94195000D01*
X179099000Y-94198000D01*
X179099000Y-94200000D01*
X179098000Y-94203000D01*
X179098000Y-94205000D01*
X179097000Y-94208000D01*
X179096000Y-94210000D01*
X179095000Y-94213000D01*
X179093000Y-94215000D01*
X179092000Y-94217000D01*
X179090000Y-94219000D01*
X179089000Y-94221000D01*
X179087000Y-94223000D01*
X179085000Y-94225000D01*
X179083000Y-94227000D01*
X179081000Y-94229000D01*
X179079000Y-94230000D01*
X179077000Y-94232000D01*
X179075000Y-94233000D01*
X179073000Y-94235000D01*
X179070000Y-94236000D01*
X179068000Y-94237000D01*
X179065000Y-94238000D01*
X179063000Y-94238000D01*
X179060000Y-94239000D01*
X179058000Y-94239000D01*
X179055000Y-94240000D01*
X179053000Y-94240000D01*
X179050000Y-94240000D01*
X176050000Y-94240000D01*
X176047000Y-94240000D01*
X176045000Y-94240000D01*
X176042000Y-94239000D01*
X176040000Y-94239000D01*
X176037000Y-94238000D01*
X176035000Y-94238000D01*
X176032000Y-94237000D01*
X176030000Y-94236000D01*
X176027000Y-94235000D01*
X176025000Y-94233000D01*
X176023000Y-94232000D01*
X176021000Y-94230000D01*
X176019000Y-94229000D01*
X176017000Y-94227000D01*
X176015000Y-94225000D01*
X176013000Y-94223000D01*
X176011000Y-94221000D01*
X176010000Y-94219000D01*
X176008000Y-94217000D01*
X176007000Y-94215000D01*
X176005000Y-94213000D01*
X176004000Y-94210000D01*
X176003000Y-94208000D01*
X176002000Y-94205000D01*
X176002000Y-94203000D01*
X176001000Y-94200000D01*
X176001000Y-94198000D01*
X176000000Y-94195000D01*
X176000000Y-94193000D01*
X176000000Y-94190000D01*
X176000000Y-89110000D01*
X176000000Y-89107000D01*
X176000000Y-89105000D01*
X176001000Y-89102000D01*
X176001000Y-89100000D01*
X176002000Y-89097000D01*
X176002000Y-89095000D01*
X176003000Y-89092000D01*
X176004000Y-89090000D01*
X176005000Y-89087000D01*
X176007000Y-89085000D01*
X176008000Y-89083000D01*
X176010000Y-89081000D01*
X176011000Y-89079000D01*
X176013000Y-89077000D01*
X176015000Y-89075000D01*
X176017000Y-89073000D01*
X176019000Y-89071000D01*
X176021000Y-89070000D01*
X176023000Y-89068000D01*
X176025000Y-89067000D01*
X176027000Y-89065000D01*
X176030000Y-89064000D01*
X176032000Y-89063000D01*
X176035000Y-89062000D01*
X176037000Y-89062000D01*
X176040000Y-89061000D01*
X176042000Y-89061000D01*
X176045000Y-89060000D01*
X176047000Y-89060000D01*
X176050000Y-89060000D01*
X179050000Y-89060000D01*
X179053000Y-89060000D01*
X179055000Y-89060000D01*
X179058000Y-89061000D01*
G36*
X179058000Y-89061000D02*
G01*
X179060000Y-89061000D01*
X179063000Y-89062000D01*
X179065000Y-89062000D01*
X179068000Y-89063000D01*
X179070000Y-89064000D01*
X179073000Y-89065000D01*
X179075000Y-89067000D01*
X179077000Y-89068000D01*
X179079000Y-89070000D01*
X179081000Y-89071000D01*
X179083000Y-89073000D01*
X179085000Y-89075000D01*
X179087000Y-89077000D01*
X179089000Y-89079000D01*
X179090000Y-89081000D01*
X179092000Y-89083000D01*
X179093000Y-89085000D01*
X179095000Y-89087000D01*
X179096000Y-89090000D01*
X179097000Y-89092000D01*
X179098000Y-89095000D01*
X179098000Y-89097000D01*
X179099000Y-89100000D01*
X179099000Y-89102000D01*
X179100000Y-89105000D01*
X179100000Y-89107000D01*
X179100000Y-89110000D01*
X179100000Y-94190000D01*
X179100000Y-94193000D01*
X179100000Y-94195000D01*
X179099000Y-94198000D01*
X179099000Y-94200000D01*
X179098000Y-94203000D01*
X179098000Y-94205000D01*
X179097000Y-94208000D01*
X179096000Y-94210000D01*
X179095000Y-94213000D01*
X179093000Y-94215000D01*
X179092000Y-94217000D01*
X179090000Y-94219000D01*
X179089000Y-94221000D01*
X179087000Y-94223000D01*
X179085000Y-94225000D01*
X179083000Y-94227000D01*
X179081000Y-94229000D01*
X179079000Y-94230000D01*
X179077000Y-94232000D01*
X179075000Y-94233000D01*
X179073000Y-94235000D01*
X179070000Y-94236000D01*
X179068000Y-94237000D01*
X179065000Y-94238000D01*
X179063000Y-94238000D01*
X179060000Y-94239000D01*
X179058000Y-94239000D01*
X179055000Y-94240000D01*
X179053000Y-94240000D01*
X179050000Y-94240000D01*
X176050000Y-94240000D01*
X176047000Y-94240000D01*
X176045000Y-94240000D01*
X176042000Y-94239000D01*
X176040000Y-94239000D01*
X176037000Y-94238000D01*
X176035000Y-94238000D01*
X176032000Y-94237000D01*
X176030000Y-94236000D01*
X176027000Y-94235000D01*
X176025000Y-94233000D01*
X176023000Y-94232000D01*
X176021000Y-94230000D01*
X176019000Y-94229000D01*
X176017000Y-94227000D01*
X176015000Y-94225000D01*
X176013000Y-94223000D01*
X176011000Y-94221000D01*
X176010000Y-94219000D01*
X176008000Y-94217000D01*
X176007000Y-94215000D01*
X176005000Y-94213000D01*
X176004000Y-94210000D01*
X176003000Y-94208000D01*
X176002000Y-94205000D01*
X176002000Y-94203000D01*
X176001000Y-94200000D01*
X176001000Y-94198000D01*
X176000000Y-94195000D01*
X176000000Y-94193000D01*
X176000000Y-94190000D01*
X176000000Y-89110000D01*
X176000000Y-89107000D01*
X176000000Y-89105000D01*
X176001000Y-89102000D01*
X176001000Y-89100000D01*
X176002000Y-89097000D01*
X176002000Y-89095000D01*
X176003000Y-89092000D01*
X176004000Y-89090000D01*
X176005000Y-89087000D01*
X176007000Y-89085000D01*
X176008000Y-89083000D01*
X176010000Y-89081000D01*
X176011000Y-89079000D01*
X176013000Y-89077000D01*
X176015000Y-89075000D01*
X176017000Y-89073000D01*
X176019000Y-89071000D01*
X176021000Y-89070000D01*
X176023000Y-89068000D01*
X176025000Y-89067000D01*
X176027000Y-89065000D01*
X176030000Y-89064000D01*
X176032000Y-89063000D01*
X176035000Y-89062000D01*
X176037000Y-89062000D01*
X176040000Y-89061000D01*
X176042000Y-89061000D01*
X176045000Y-89060000D01*
X176047000Y-89060000D01*
X176050000Y-89060000D01*
X179050000Y-89060000D01*
X179053000Y-89060000D01*
X179055000Y-89060000D01*
X179058000Y-89061000D01*
G37*
%TO.C,U3*%
X162898000Y-95251000D02*
X162900000Y-95251000D01*
X162903000Y-95252000D01*
X162905000Y-95252000D01*
X162908000Y-95253000D01*
X162910000Y-95254000D01*
X162913000Y-95255000D01*
X162915000Y-95257000D01*
X162917000Y-95258000D01*
X162919000Y-95260000D01*
X162921000Y-95261000D01*
X162923000Y-95263000D01*
X162925000Y-95265000D01*
X162927000Y-95267000D01*
X162929000Y-95269000D01*
X162930000Y-95271000D01*
X162932000Y-95273000D01*
X162933000Y-95275000D01*
X162935000Y-95277000D01*
X162936000Y-95280000D01*
X162937000Y-95282000D01*
X162938000Y-95285000D01*
X162938000Y-95287000D01*
X162939000Y-95290000D01*
X162939000Y-95292000D01*
X162940000Y-95295000D01*
X162940000Y-95297000D01*
X162940000Y-95300000D01*
X162940000Y-98300000D01*
X162940000Y-98303000D01*
X162940000Y-98305000D01*
X162939000Y-98308000D01*
X162939000Y-98310000D01*
X162938000Y-98313000D01*
X162938000Y-98315000D01*
X162937000Y-98318000D01*
X162936000Y-98320000D01*
X162935000Y-98323000D01*
X162933000Y-98325000D01*
X162932000Y-98327000D01*
X162930000Y-98329000D01*
X162929000Y-98331000D01*
X162927000Y-98333000D01*
X162925000Y-98335000D01*
X162923000Y-98337000D01*
X162921000Y-98339000D01*
X162919000Y-98340000D01*
X162917000Y-98342000D01*
X162915000Y-98343000D01*
X162913000Y-98345000D01*
X162910000Y-98346000D01*
X162908000Y-98347000D01*
X162905000Y-98348000D01*
X162903000Y-98348000D01*
X162900000Y-98349000D01*
X162898000Y-98349000D01*
X162895000Y-98350000D01*
X162893000Y-98350000D01*
X162890000Y-98350000D01*
X157810000Y-98350000D01*
X157807000Y-98350000D01*
X157805000Y-98350000D01*
X157802000Y-98349000D01*
X157800000Y-98349000D01*
X157797000Y-98348000D01*
X157795000Y-98348000D01*
X157792000Y-98347000D01*
X157790000Y-98346000D01*
X157787000Y-98345000D01*
X157785000Y-98343000D01*
X157783000Y-98342000D01*
X157781000Y-98340000D01*
X157779000Y-98339000D01*
X157777000Y-98337000D01*
X157775000Y-98335000D01*
X157773000Y-98333000D01*
X157771000Y-98331000D01*
X157770000Y-98329000D01*
X157768000Y-98327000D01*
X157767000Y-98325000D01*
X157765000Y-98323000D01*
X157764000Y-98320000D01*
X157763000Y-98318000D01*
X157762000Y-98315000D01*
X157762000Y-98313000D01*
X157761000Y-98310000D01*
X157761000Y-98308000D01*
X157760000Y-98305000D01*
X157760000Y-98303000D01*
X157760000Y-98300000D01*
X157760000Y-95300000D01*
X157760000Y-95297000D01*
X157760000Y-95295000D01*
X157761000Y-95292000D01*
X157761000Y-95290000D01*
X157762000Y-95287000D01*
X157762000Y-95285000D01*
X157763000Y-95282000D01*
X157764000Y-95280000D01*
X157765000Y-95277000D01*
X157767000Y-95275000D01*
X157768000Y-95273000D01*
X157770000Y-95271000D01*
X157771000Y-95269000D01*
X157773000Y-95267000D01*
X157775000Y-95265000D01*
X157777000Y-95263000D01*
X157779000Y-95261000D01*
X157781000Y-95260000D01*
X157783000Y-95258000D01*
X157785000Y-95257000D01*
X157787000Y-95255000D01*
X157790000Y-95254000D01*
X157792000Y-95253000D01*
X157795000Y-95252000D01*
X157797000Y-95252000D01*
X157800000Y-95251000D01*
X157802000Y-95251000D01*
X157805000Y-95250000D01*
X157807000Y-95250000D01*
X157810000Y-95250000D01*
X162890000Y-95250000D01*
X162893000Y-95250000D01*
X162895000Y-95250000D01*
X162898000Y-95251000D01*
G36*
X162898000Y-95251000D02*
G01*
X162900000Y-95251000D01*
X162903000Y-95252000D01*
X162905000Y-95252000D01*
X162908000Y-95253000D01*
X162910000Y-95254000D01*
X162913000Y-95255000D01*
X162915000Y-95257000D01*
X162917000Y-95258000D01*
X162919000Y-95260000D01*
X162921000Y-95261000D01*
X162923000Y-95263000D01*
X162925000Y-95265000D01*
X162927000Y-95267000D01*
X162929000Y-95269000D01*
X162930000Y-95271000D01*
X162932000Y-95273000D01*
X162933000Y-95275000D01*
X162935000Y-95277000D01*
X162936000Y-95280000D01*
X162937000Y-95282000D01*
X162938000Y-95285000D01*
X162938000Y-95287000D01*
X162939000Y-95290000D01*
X162939000Y-95292000D01*
X162940000Y-95295000D01*
X162940000Y-95297000D01*
X162940000Y-95300000D01*
X162940000Y-98300000D01*
X162940000Y-98303000D01*
X162940000Y-98305000D01*
X162939000Y-98308000D01*
X162939000Y-98310000D01*
X162938000Y-98313000D01*
X162938000Y-98315000D01*
X162937000Y-98318000D01*
X162936000Y-98320000D01*
X162935000Y-98323000D01*
X162933000Y-98325000D01*
X162932000Y-98327000D01*
X162930000Y-98329000D01*
X162929000Y-98331000D01*
X162927000Y-98333000D01*
X162925000Y-98335000D01*
X162923000Y-98337000D01*
X162921000Y-98339000D01*
X162919000Y-98340000D01*
X162917000Y-98342000D01*
X162915000Y-98343000D01*
X162913000Y-98345000D01*
X162910000Y-98346000D01*
X162908000Y-98347000D01*
X162905000Y-98348000D01*
X162903000Y-98348000D01*
X162900000Y-98349000D01*
X162898000Y-98349000D01*
X162895000Y-98350000D01*
X162893000Y-98350000D01*
X162890000Y-98350000D01*
X157810000Y-98350000D01*
X157807000Y-98350000D01*
X157805000Y-98350000D01*
X157802000Y-98349000D01*
X157800000Y-98349000D01*
X157797000Y-98348000D01*
X157795000Y-98348000D01*
X157792000Y-98347000D01*
X157790000Y-98346000D01*
X157787000Y-98345000D01*
X157785000Y-98343000D01*
X157783000Y-98342000D01*
X157781000Y-98340000D01*
X157779000Y-98339000D01*
X157777000Y-98337000D01*
X157775000Y-98335000D01*
X157773000Y-98333000D01*
X157771000Y-98331000D01*
X157770000Y-98329000D01*
X157768000Y-98327000D01*
X157767000Y-98325000D01*
X157765000Y-98323000D01*
X157764000Y-98320000D01*
X157763000Y-98318000D01*
X157762000Y-98315000D01*
X157762000Y-98313000D01*
X157761000Y-98310000D01*
X157761000Y-98308000D01*
X157760000Y-98305000D01*
X157760000Y-98303000D01*
X157760000Y-98300000D01*
X157760000Y-95300000D01*
X157760000Y-95297000D01*
X157760000Y-95295000D01*
X157761000Y-95292000D01*
X157761000Y-95290000D01*
X157762000Y-95287000D01*
X157762000Y-95285000D01*
X157763000Y-95282000D01*
X157764000Y-95280000D01*
X157765000Y-95277000D01*
X157767000Y-95275000D01*
X157768000Y-95273000D01*
X157770000Y-95271000D01*
X157771000Y-95269000D01*
X157773000Y-95267000D01*
X157775000Y-95265000D01*
X157777000Y-95263000D01*
X157779000Y-95261000D01*
X157781000Y-95260000D01*
X157783000Y-95258000D01*
X157785000Y-95257000D01*
X157787000Y-95255000D01*
X157790000Y-95254000D01*
X157792000Y-95253000D01*
X157795000Y-95252000D01*
X157797000Y-95252000D01*
X157800000Y-95251000D01*
X157802000Y-95251000D01*
X157805000Y-95250000D01*
X157807000Y-95250000D01*
X157810000Y-95250000D01*
X162890000Y-95250000D01*
X162893000Y-95250000D01*
X162895000Y-95250000D01*
X162898000Y-95251000D01*
G37*
%TO.C,U5*%
X158028000Y-60576000D02*
X158030000Y-60576000D01*
X158033000Y-60577000D01*
X158035000Y-60577000D01*
X158038000Y-60578000D01*
X158040000Y-60579000D01*
X158043000Y-60580000D01*
X158045000Y-60582000D01*
X158047000Y-60583000D01*
X158049000Y-60585000D01*
X158051000Y-60586000D01*
X158053000Y-60588000D01*
X158055000Y-60590000D01*
X158057000Y-60592000D01*
X158059000Y-60594000D01*
X158060000Y-60596000D01*
X158062000Y-60598000D01*
X158063000Y-60600000D01*
X158065000Y-60602000D01*
X158066000Y-60605000D01*
X158067000Y-60607000D01*
X158068000Y-60610000D01*
X158068000Y-60612000D01*
X158069000Y-60615000D01*
X158069000Y-60617000D01*
X158070000Y-60620000D01*
X158070000Y-60622000D01*
X158070000Y-60625000D01*
X158070000Y-63625000D01*
X158070000Y-63628000D01*
X158070000Y-63630000D01*
X158069000Y-63633000D01*
X158069000Y-63635000D01*
X158068000Y-63638000D01*
X158068000Y-63640000D01*
X158067000Y-63643000D01*
X158066000Y-63645000D01*
X158065000Y-63648000D01*
X158063000Y-63650000D01*
X158062000Y-63652000D01*
X158060000Y-63654000D01*
X158059000Y-63656000D01*
X158057000Y-63658000D01*
X158055000Y-63660000D01*
X158053000Y-63662000D01*
X158051000Y-63664000D01*
X158049000Y-63665000D01*
X158047000Y-63667000D01*
X158045000Y-63668000D01*
X158043000Y-63670000D01*
X158040000Y-63671000D01*
X158038000Y-63672000D01*
X158035000Y-63673000D01*
X158033000Y-63673000D01*
X158030000Y-63674000D01*
X158028000Y-63674000D01*
X158025000Y-63675000D01*
X158023000Y-63675000D01*
X158020000Y-63675000D01*
X152940000Y-63675000D01*
X152937000Y-63675000D01*
X152935000Y-63675000D01*
X152932000Y-63674000D01*
X152930000Y-63674000D01*
X152927000Y-63673000D01*
X152925000Y-63673000D01*
X152922000Y-63672000D01*
X152920000Y-63671000D01*
X152917000Y-63670000D01*
X152915000Y-63668000D01*
X152913000Y-63667000D01*
X152911000Y-63665000D01*
X152909000Y-63664000D01*
X152907000Y-63662000D01*
X152905000Y-63660000D01*
X152903000Y-63658000D01*
X152901000Y-63656000D01*
X152900000Y-63654000D01*
X152898000Y-63652000D01*
X152897000Y-63650000D01*
X152895000Y-63648000D01*
X152894000Y-63645000D01*
X152893000Y-63643000D01*
X152892000Y-63640000D01*
X152892000Y-63638000D01*
X152891000Y-63635000D01*
X152891000Y-63633000D01*
X152890000Y-63630000D01*
X152890000Y-63628000D01*
X152890000Y-63625000D01*
X152890000Y-60625000D01*
X152890000Y-60622000D01*
X152890000Y-60620000D01*
X152891000Y-60617000D01*
X152891000Y-60615000D01*
X152892000Y-60612000D01*
X152892000Y-60610000D01*
X152893000Y-60607000D01*
X152894000Y-60605000D01*
X152895000Y-60602000D01*
X152897000Y-60600000D01*
X152898000Y-60598000D01*
X152900000Y-60596000D01*
X152901000Y-60594000D01*
X152903000Y-60592000D01*
X152905000Y-60590000D01*
X152907000Y-60588000D01*
X152909000Y-60586000D01*
X152911000Y-60585000D01*
X152913000Y-60583000D01*
X152915000Y-60582000D01*
X152917000Y-60580000D01*
X152920000Y-60579000D01*
X152922000Y-60578000D01*
X152925000Y-60577000D01*
X152927000Y-60577000D01*
X152930000Y-60576000D01*
X152932000Y-60576000D01*
X152935000Y-60575000D01*
X152937000Y-60575000D01*
X152940000Y-60575000D01*
X158020000Y-60575000D01*
X158023000Y-60575000D01*
X158025000Y-60575000D01*
X158028000Y-60576000D01*
G36*
X158028000Y-60576000D02*
G01*
X158030000Y-60576000D01*
X158033000Y-60577000D01*
X158035000Y-60577000D01*
X158038000Y-60578000D01*
X158040000Y-60579000D01*
X158043000Y-60580000D01*
X158045000Y-60582000D01*
X158047000Y-60583000D01*
X158049000Y-60585000D01*
X158051000Y-60586000D01*
X158053000Y-60588000D01*
X158055000Y-60590000D01*
X158057000Y-60592000D01*
X158059000Y-60594000D01*
X158060000Y-60596000D01*
X158062000Y-60598000D01*
X158063000Y-60600000D01*
X158065000Y-60602000D01*
X158066000Y-60605000D01*
X158067000Y-60607000D01*
X158068000Y-60610000D01*
X158068000Y-60612000D01*
X158069000Y-60615000D01*
X158069000Y-60617000D01*
X158070000Y-60620000D01*
X158070000Y-60622000D01*
X158070000Y-60625000D01*
X158070000Y-63625000D01*
X158070000Y-63628000D01*
X158070000Y-63630000D01*
X158069000Y-63633000D01*
X158069000Y-63635000D01*
X158068000Y-63638000D01*
X158068000Y-63640000D01*
X158067000Y-63643000D01*
X158066000Y-63645000D01*
X158065000Y-63648000D01*
X158063000Y-63650000D01*
X158062000Y-63652000D01*
X158060000Y-63654000D01*
X158059000Y-63656000D01*
X158057000Y-63658000D01*
X158055000Y-63660000D01*
X158053000Y-63662000D01*
X158051000Y-63664000D01*
X158049000Y-63665000D01*
X158047000Y-63667000D01*
X158045000Y-63668000D01*
X158043000Y-63670000D01*
X158040000Y-63671000D01*
X158038000Y-63672000D01*
X158035000Y-63673000D01*
X158033000Y-63673000D01*
X158030000Y-63674000D01*
X158028000Y-63674000D01*
X158025000Y-63675000D01*
X158023000Y-63675000D01*
X158020000Y-63675000D01*
X152940000Y-63675000D01*
X152937000Y-63675000D01*
X152935000Y-63675000D01*
X152932000Y-63674000D01*
X152930000Y-63674000D01*
X152927000Y-63673000D01*
X152925000Y-63673000D01*
X152922000Y-63672000D01*
X152920000Y-63671000D01*
X152917000Y-63670000D01*
X152915000Y-63668000D01*
X152913000Y-63667000D01*
X152911000Y-63665000D01*
X152909000Y-63664000D01*
X152907000Y-63662000D01*
X152905000Y-63660000D01*
X152903000Y-63658000D01*
X152901000Y-63656000D01*
X152900000Y-63654000D01*
X152898000Y-63652000D01*
X152897000Y-63650000D01*
X152895000Y-63648000D01*
X152894000Y-63645000D01*
X152893000Y-63643000D01*
X152892000Y-63640000D01*
X152892000Y-63638000D01*
X152891000Y-63635000D01*
X152891000Y-63633000D01*
X152890000Y-63630000D01*
X152890000Y-63628000D01*
X152890000Y-63625000D01*
X152890000Y-60625000D01*
X152890000Y-60622000D01*
X152890000Y-60620000D01*
X152891000Y-60617000D01*
X152891000Y-60615000D01*
X152892000Y-60612000D01*
X152892000Y-60610000D01*
X152893000Y-60607000D01*
X152894000Y-60605000D01*
X152895000Y-60602000D01*
X152897000Y-60600000D01*
X152898000Y-60598000D01*
X152900000Y-60596000D01*
X152901000Y-60594000D01*
X152903000Y-60592000D01*
X152905000Y-60590000D01*
X152907000Y-60588000D01*
X152909000Y-60586000D01*
X152911000Y-60585000D01*
X152913000Y-60583000D01*
X152915000Y-60582000D01*
X152917000Y-60580000D01*
X152920000Y-60579000D01*
X152922000Y-60578000D01*
X152925000Y-60577000D01*
X152927000Y-60577000D01*
X152930000Y-60576000D01*
X152932000Y-60576000D01*
X152935000Y-60575000D01*
X152937000Y-60575000D01*
X152940000Y-60575000D01*
X158020000Y-60575000D01*
X158023000Y-60575000D01*
X158025000Y-60575000D01*
X158028000Y-60576000D01*
G37*
%TD*%
D11*
%TO.C,R5*%
X140325000Y-69665000D03*
X140325000Y-68975000D03*
%TD*%
D12*
%TO.C,D2*%
X171955000Y-83335000D03*
X171955000Y-84025000D03*
%TD*%
D13*
%TO.C,R6*%
X169810000Y-84000000D03*
X170500000Y-84000000D03*
%TD*%
D14*
%TO.C,ToggleBtn1*%
X175650000Y-63650000D03*
X175650000Y-77950000D03*
X170650000Y-63650000D03*
X170650000Y-77950000D03*
%TD*%
D15*
%TO.C,U6*%
X180450000Y-95875000D03*
X180450000Y-95225000D03*
X180450000Y-94575000D03*
X180450000Y-93925000D03*
X180450000Y-93275000D03*
X180450000Y-92625000D03*
X180450000Y-91975000D03*
X180450000Y-91325000D03*
X180450000Y-90675000D03*
X180450000Y-90025000D03*
X180450000Y-89375000D03*
X180450000Y-88725000D03*
X180450000Y-88075000D03*
X180450000Y-87425000D03*
X174650000Y-87425000D03*
X174650000Y-88075000D03*
X174650000Y-88725000D03*
X174650000Y-89375000D03*
X174650000Y-90025000D03*
X174650000Y-90675000D03*
X174650000Y-91325000D03*
X174650000Y-91975000D03*
X174650000Y-92625000D03*
X174650000Y-93275000D03*
X174650000Y-93925000D03*
X174650000Y-94575000D03*
X174650000Y-95225000D03*
X174650000Y-95875000D03*
%TD*%
D11*
%TO.C,R8*%
X160895000Y-118600000D03*
X160895000Y-117910000D03*
%TD*%
D12*
%TO.C,R1*%
X150550000Y-87405000D03*
X150550000Y-88095000D03*
%TD*%
%TO.C,R7*%
X148650000Y-87380000D03*
X148650000Y-88070000D03*
%TD*%
D16*
%TO.C,C3*%
X150455000Y-109125000D03*
X154055000Y-109125000D03*
%TD*%
D17*
%TO.C,C16*%
X147975000Y-68720000D03*
X147975000Y-70270000D03*
%TD*%
D11*
%TO.C,R9*%
X163495000Y-118600000D03*
X163495000Y-117910000D03*
%TD*%
D18*
%TO.C,C8*%
X187350000Y-97600000D03*
X187350000Y-101200000D03*
%TD*%
D19*
%TO.C,C5*%
X167855000Y-97675000D03*
X167855000Y-96125000D03*
%TD*%
D20*
%TO.C,U1*%
X153212500Y-81062500D03*
X153212500Y-81562500D03*
X153212500Y-82062500D03*
X153212500Y-82562500D03*
X153212500Y-83062500D03*
X153212500Y-83562500D03*
X153212500Y-84062500D03*
X153212500Y-84562500D03*
X153212500Y-85062500D03*
X153212500Y-85562500D03*
X153212500Y-86062500D03*
X153212500Y-86562500D03*
D21*
X154625000Y-87975000D03*
X155125000Y-87975000D03*
X155625000Y-87975000D03*
X156125000Y-87975000D03*
X156625000Y-87975000D03*
X157125000Y-87975000D03*
X157625000Y-87975000D03*
X158125000Y-87975000D03*
X158625000Y-87975000D03*
X159125000Y-87975000D03*
X159625000Y-87975000D03*
X160125000Y-87975000D03*
D20*
X161537500Y-86562500D03*
X161537500Y-86062500D03*
X161537500Y-85562500D03*
X161537500Y-85062500D03*
X161537500Y-84562500D03*
X161537500Y-84062500D03*
X161537500Y-83562500D03*
X161537500Y-83062500D03*
X161537500Y-82562500D03*
X161537500Y-82062500D03*
X161537500Y-81562500D03*
X161537500Y-81062500D03*
D21*
X160125000Y-79650000D03*
X159625000Y-79650000D03*
X159125000Y-79650000D03*
X158625000Y-79650000D03*
X158125000Y-79650000D03*
X157625000Y-79650000D03*
X157125000Y-79650000D03*
X156625000Y-79650000D03*
X156125000Y-79650000D03*
X155625000Y-79650000D03*
X155125000Y-79650000D03*
X154625000Y-79650000D03*
%TD*%
D22*
%TO.C,C11*%
X165450000Y-50825000D03*
X161850000Y-50825000D03*
%TD*%
D17*
%TO.C,C9*%
X148200000Y-61425000D03*
X148200000Y-62975000D03*
%TD*%
D23*
%TO.C,U3*%
X156125000Y-99700000D03*
X156775000Y-99700000D03*
X157425000Y-99700000D03*
X158075000Y-99700000D03*
X158725000Y-99700000D03*
X159375000Y-99700000D03*
X160025000Y-99700000D03*
X160675000Y-99700000D03*
X161325000Y-99700000D03*
X161975000Y-99700000D03*
X162625000Y-99700000D03*
X163275000Y-99700000D03*
X163925000Y-99700000D03*
X164575000Y-99700000D03*
X164575000Y-93900000D03*
X163925000Y-93900000D03*
X163275000Y-93900000D03*
X162625000Y-93900000D03*
X161975000Y-93900000D03*
X161325000Y-93900000D03*
X160675000Y-93900000D03*
X160025000Y-93900000D03*
X159375000Y-93900000D03*
X158725000Y-93900000D03*
X158075000Y-93900000D03*
X157425000Y-93900000D03*
X156775000Y-93900000D03*
X156125000Y-93900000D03*
%TD*%
D19*
%TO.C,C18*%
X146825000Y-77020000D03*
X146825000Y-75470000D03*
%TD*%
D24*
%TO.C,C17*%
X142800000Y-74995000D03*
X144350000Y-74995000D03*
%TD*%
D25*
%TO.C,L1*%
X144265000Y-77320000D03*
X143575000Y-77320000D03*
%TD*%
D13*
%TO.C,R4*%
X143305000Y-67320000D03*
X143995000Y-67320000D03*
%TD*%
D26*
%TO.C,U5*%
X159705000Y-59225000D03*
X159055000Y-59225000D03*
X158405000Y-59225000D03*
X157755000Y-59225000D03*
X157105000Y-59225000D03*
X156455000Y-59225000D03*
X155805000Y-59225000D03*
X155155000Y-59225000D03*
X154505000Y-59225000D03*
X153855000Y-59225000D03*
X153205000Y-59225000D03*
X152555000Y-59225000D03*
X151905000Y-59225000D03*
X151255000Y-59225000D03*
X151255000Y-65025000D03*
X151905000Y-65025000D03*
X152555000Y-65025000D03*
X153205000Y-65025000D03*
X153855000Y-65025000D03*
X154505000Y-65025000D03*
X155155000Y-65025000D03*
X155805000Y-65025000D03*
X156455000Y-65025000D03*
X157105000Y-65025000D03*
X157755000Y-65025000D03*
X158405000Y-65025000D03*
X159055000Y-65025000D03*
X159705000Y-65025000D03*
%TD*%
D27*
%TO.C,U7*%
X144760002Y-70620000D03*
X144760002Y-69670000D03*
X144760002Y-68720000D03*
X142485002Y-68720000D03*
X142485002Y-69670000D03*
X142485002Y-70620000D03*
%TD*%
D28*
%TO.C,C6*%
X178450000Y-84100000D03*
X176900000Y-84100000D03*
%TD*%
D12*
%TO.C,R2*%
X106750000Y-72650000D03*
X106750000Y-73340000D03*
%TD*%
D29*
%TO.C,U2*%
X108200000Y-74000000D03*
X108200000Y-74500000D03*
X108200000Y-75000000D03*
X108200000Y-75500000D03*
X108200000Y-76000000D03*
D30*
X108925000Y-76225000D03*
X109425000Y-76225000D03*
X109925000Y-76225000D03*
D29*
X110650000Y-76000000D03*
X110650000Y-75500000D03*
X110650000Y-75000000D03*
X110650000Y-74500000D03*
X110650000Y-74000000D03*
D30*
X109925000Y-73775000D03*
X109425000Y-73775000D03*
X108925000Y-73775000D03*
%TD*%
M02*
