%TF.GenerationSoftware,KiCad,Pcbnew,9.0.3*%
%TF.CreationDate,2026-01-19T22:35:58+02:00*%
%TF.ProjectId,GimbalBoard,47696d62-616c-4426-9f61-72642e6b6963,rev?*%
%TF.SameCoordinates,Original*%
%TF.FileFunction,Copper,L2,Bot*%
%TF.FilePolarity,Positive*%
%FSLAX46Y46*%
G04 Gerber Fmt 4.6, Leading zero omitted, Abs format (unit mm)*
G04 Created by KiCad (PCBNEW 9.0.3) date 2026-01-19 22:35:58*
%MOMM*%
%LPD*%
G01*
G04 APERTURE LIST*
G04 Aperture macros list*
%AMRoundRect*
0 Rectangle with rounded corners*
0 $1 Rounding radius*
0 $2 $3 $4 $5 $6 $7 $8 $9 X,Y pos of 4 corners*
0 Add a 4 corners polygon primitive as box body*
4,1,4,$2,$3,$4,$5,$6,$7,$8,$9,$2,$3,0*
0 Add four circle primitives for the rounded corners*
1,1,$1+$1,$2,$3*
1,1,$1+$1,$4,$5*
1,1,$1+$1,$6,$7*
1,1,$1+$1,$8,$9*
0 Add four rect primitives between the rounded corners*
20,1,$1+$1,$2,$3,$4,$5,0*
20,1,$1+$1,$4,$5,$6,$7,0*
20,1,$1+$1,$6,$7,$8,$9,0*
20,1,$1+$1,$8,$9,$2,$3,0*%
G04 Aperture macros list end*
%TA.AperFunction,ComponentPad*%
%ADD10C,3.800000*%
%TD*%
%TA.AperFunction,ComponentPad*%
%ADD11R,0.850000X0.850000*%
%TD*%
%TA.AperFunction,ComponentPad*%
%ADD12C,0.300000*%
%TD*%
%TA.AperFunction,ComponentPad*%
%ADD13R,1.700000X1.700000*%
%TD*%
%TA.AperFunction,ComponentPad*%
%ADD14C,1.700000*%
%TD*%
%TA.AperFunction,SMDPad,CuDef*%
%ADD15RoundRect,0.087500X0.087500X-0.187500X0.087500X0.187500X-0.087500X0.187500X-0.087500X-0.187500X0*%
%TD*%
%TA.AperFunction,SMDPad,CuDef*%
%ADD16RoundRect,0.087500X0.187500X-0.087500X0.187500X0.087500X-0.187500X0.087500X-0.187500X-0.087500X0*%
%TD*%
%TA.AperFunction,SMDPad,CuDef*%
%ADD17RoundRect,0.100000X0.100000X-0.130000X0.100000X0.130000X-0.100000X0.130000X-0.100000X-0.130000X0*%
%TD*%
%TA.AperFunction,ViaPad*%
%ADD18C,0.600000*%
%TD*%
%TA.AperFunction,Conductor*%
%ADD19C,0.200000*%
%TD*%
G04 APERTURE END LIST*
D10*
%TO.P,,1*%
%TO.N,N/C*%
X133225000Y-126650000D03*
%TD*%
D11*
%TO.P,14.8V,1,Pin_1*%
%TO.N,VIN*%
X139525000Y-65075000D03*
%TD*%
D12*
%TO.P,U6,30*%
%TO.N,N/C*%
X178750000Y-95850000D03*
%TO.P,U6,31*%
X177550000Y-95850000D03*
%TO.P,U6,32*%
X176350000Y-95850000D03*
%TO.P,U6,33*%
X178750000Y-94650000D03*
%TO.P,U6,34*%
X177550000Y-94650000D03*
%TO.P,U6,35*%
X176350000Y-94650000D03*
%TO.P,U6,36*%
X178750000Y-93450000D03*
%TO.P,U6,37*%
X177550000Y-93450000D03*
%TO.P,U6,38*%
X176350000Y-93450000D03*
%TO.P,U6,39*%
X178750000Y-92250000D03*
%TO.P,U6,40*%
X177550000Y-92250000D03*
%TO.P,U6,41*%
X176350000Y-92250000D03*
%TO.P,U6,42*%
X178750000Y-91050000D03*
%TO.P,U6,43*%
X177550000Y-91050000D03*
%TO.P,U6,44*%
X176350000Y-91050000D03*
%TO.P,U6,45*%
X178750000Y-89850000D03*
%TO.P,U6,46*%
X177550000Y-89850000D03*
%TO.P,U6,47*%
X176350000Y-89850000D03*
%TO.P,U6,48*%
X178750000Y-88650000D03*
%TO.P,U6,49*%
X177550000Y-88650000D03*
%TO.P,U6,50*%
X176350000Y-88650000D03*
%TO.P,U6,51*%
X178750000Y-87450000D03*
%TO.P,U6,52*%
X177550000Y-87450000D03*
%TO.P,U6,53*%
X176350000Y-87450000D03*
%TD*%
D10*
%TO.P,REF\u002A\u002A,1*%
%TO.N,N/C*%
X193450000Y-45225000D03*
%TD*%
D11*
%TO.P,SWDIO,1,Pin_1*%
%TO.N,Net-(J3-Pin_1)*%
X162000000Y-75125000D03*
%TD*%
%TO.P,PB9_SDA,1,Pin_1*%
%TO.N,PB9_SDA*%
X138780082Y-80525409D03*
%TD*%
%TO.P,OUT23,1,Pin_1*%
%TO.N,Net-(OUT23-Pin_1)*%
X152875000Y-50375000D03*
%TD*%
%TO.P,VOUT,1,Pin_1*%
%TO.N,VOUT*%
X138800000Y-78375000D03*
%TD*%
%TO.P,OUT22,1,Pin_1*%
%TO.N,Net-(OUT22-Pin_1)*%
X155025000Y-50350000D03*
%TD*%
%TO.P,OUT12,1,Pin_1*%
%TO.N,Net-(OUT12-Pin_1)*%
X189075000Y-91050000D03*
%TD*%
%TO.P,GND,1,Pin_1*%
%TO.N,GND*%
X138700000Y-89825000D03*
%TD*%
%TO.P,OUT02,1,Pin_1*%
%TO.N,Net-(OUT02-Pin_1)*%
X160205000Y-110425000D03*
%TD*%
D10*
%TO.P,,1*%
%TO.N,N/C*%
X193475000Y-126700000D03*
%TD*%
%TO.P,REF\u002A\u002A,1*%
%TO.N,N/C*%
X133200000Y-45175000D03*
%TD*%
D11*
%TO.P,OUT11,1,Pin_1*%
%TO.N,Net-(OUT11-Pin_1)*%
X189050000Y-93225000D03*
%TD*%
D13*
%TO.P,JoyStick,1,Pin_1*%
%TO.N,GND*%
X153200000Y-122450000D03*
D14*
%TO.P,JoyStick,2,Pin_2*%
%TO.N,VOUT*%
X155740000Y-122450000D03*
%TO.P,JoyStick,3,Pin_3*%
%TO.N,SW_STICK*%
X158280000Y-122450000D03*
%TO.P,JoyStick,4,Pin_4*%
%TO.N,Net-(JoyStick1-Pin_4)*%
X160820000Y-122450000D03*
%TO.P,JoyStick,5,Pin_5*%
%TO.N,Net-(JoyStick1-Pin_5)*%
X163360000Y-122450000D03*
%TD*%
D11*
%TO.P,SWCLK,1,Pin_1*%
%TO.N,Net-(J4-Pin_1)*%
X159875000Y-75125000D03*
%TD*%
%TO.P,GND,1,Pin_1*%
%TO.N,GND*%
X139500000Y-62925000D03*
%TD*%
%TO.P,TX,1,Pin_1*%
%TO.N,Net-(J1-Pin_1)*%
X138705082Y-85550409D03*
%TD*%
%TO.P,OUT21,1,Pin_1*%
%TO.N,Net-(OUT21-Pin_1)*%
X157175000Y-50375000D03*
%TD*%
D12*
%TO.P,U3,30*%
%TO.N,N/C*%
X156150000Y-98000000D03*
%TO.P,U3,31*%
X156150000Y-96800000D03*
%TO.P,U3,32*%
X156150000Y-95600000D03*
%TO.P,U3,33*%
X157350000Y-98000000D03*
%TO.P,U3,34*%
X157350000Y-96800000D03*
%TO.P,U3,35*%
X157350000Y-95600000D03*
%TO.P,U3,36*%
X158550000Y-98000000D03*
%TO.P,U3,37*%
X158550000Y-96800000D03*
%TO.P,U3,38*%
X158550000Y-95600000D03*
%TO.P,U3,39*%
X159750000Y-98000000D03*
%TO.P,U3,40*%
X159750000Y-96800000D03*
%TO.P,U3,41*%
X159750000Y-95600000D03*
%TO.P,U3,42*%
X160950000Y-98000000D03*
%TO.P,U3,43*%
X160950000Y-96800000D03*
%TO.P,U3,44*%
X160950000Y-95600000D03*
%TO.P,U3,45*%
X162150000Y-98000000D03*
%TO.P,U3,46*%
X162150000Y-96800000D03*
%TO.P,U3,47*%
X162150000Y-95600000D03*
%TO.P,U3,48*%
X163350000Y-98000000D03*
%TO.P,U3,49*%
X163350000Y-96800000D03*
%TO.P,U3,50*%
X163350000Y-95600000D03*
%TO.P,U3,51*%
X164550000Y-98000000D03*
%TO.P,U3,52*%
X164550000Y-96800000D03*
%TO.P,U3,53*%
X164550000Y-95600000D03*
%TD*%
D11*
%TO.P,OUT03,1,Pin_1*%
%TO.N,Net-(OUT03-Pin_1)*%
X162405000Y-110450000D03*
%TD*%
%TO.P,OUT13,1,Pin_1*%
%TO.N,Net-(OUT13-Pin_1)*%
X189050000Y-88925000D03*
%TD*%
%TO.P,RX,1,Pin_1*%
%TO.N,Net-(J2-Pin_1)*%
X138700000Y-87675000D03*
%TD*%
D12*
%TO.P,U5,30*%
%TO.N,N/C*%
X159680000Y-60925000D03*
%TO.P,U5,31*%
X159680000Y-62125000D03*
%TO.P,U5,32*%
X159680000Y-63325000D03*
%TO.P,U5,33*%
X158480000Y-60925000D03*
%TO.P,U5,34*%
X158480000Y-62125000D03*
%TO.P,U5,35*%
X158480000Y-63325000D03*
%TO.P,U5,36*%
X157280000Y-60925000D03*
%TO.P,U5,37*%
X157280000Y-62125000D03*
%TO.P,U5,38*%
X157280000Y-63325000D03*
%TO.P,U5,39*%
X156080000Y-60925000D03*
%TO.P,U5,40*%
X156080000Y-62125000D03*
%TO.P,U5,41*%
X156080000Y-63325000D03*
%TO.P,U5,42*%
X154880000Y-60925000D03*
%TO.P,U5,43*%
X154880000Y-62125000D03*
%TO.P,U5,44*%
X154880000Y-63325000D03*
%TO.P,U5,45*%
X153680000Y-60925000D03*
%TO.P,U5,46*%
X153680000Y-62125000D03*
%TO.P,U5,47*%
X153680000Y-63325000D03*
%TO.P,U5,48*%
X152480000Y-60925000D03*
%TO.P,U5,49*%
X152480000Y-62125000D03*
%TO.P,U5,50*%
X152480000Y-63325000D03*
%TO.P,U5,51*%
X151280000Y-60925000D03*
%TO.P,U5,52*%
X151280000Y-62125000D03*
%TO.P,U5,53*%
X151280000Y-63325000D03*
%TD*%
D11*
%TO.P,PB8_SCL,1,Pin_1*%
%TO.N,PB8_SCL*%
X138775000Y-82650000D03*
%TD*%
%TO.P,OUT01,1,Pin_1*%
%TO.N,Net-(OUT01-Pin_1)*%
X158005000Y-110450000D03*
%TD*%
D15*
%TO.P,U4,1,VDDIO*%
%TO.N,Net-(U4-VDD)*%
X155351750Y-73850000D03*
%TO.P,U4,2,SCL/SPC*%
%TO.N,PB8_SCL*%
X154851750Y-73850000D03*
%TO.P,U4,3,SDA/SDI*%
%TO.N,PB9_SDA*%
X154351750Y-73850000D03*
%TO.P,U4,4,SAO/SD0*%
%TO.N,VOUT*%
X153851750Y-73850000D03*
%TO.P,U4,5,~{CS}*%
%TO.N,unconnected-(U4-~{CS}-Pad5)*%
X153351750Y-73850000D03*
D16*
%TO.P,U4,6,INT*%
%TO.N,unconnected-(U4-INT-Pad6)*%
X153126750Y-73125000D03*
%TO.P,U4,7,RESV*%
%TO.N,unconnected-(U4-RESV-Pad7)*%
X153126750Y-72625000D03*
%TO.P,U4,8,FSYNC*%
%TO.N,unconnected-(U4-FSYNC-Pad8)*%
X153126750Y-72125000D03*
D15*
%TO.P,U4,9,GND*%
%TO.N,GND*%
X153351750Y-71400000D03*
%TO.P,U4,10,GND*%
X153851750Y-71400000D03*
%TO.P,U4,11,GND*%
X154351750Y-71400000D03*
%TO.P,U4,12,GND*%
X154851750Y-71400000D03*
%TO.P,U4,13,GND*%
X155351750Y-71400000D03*
D16*
%TO.P,U4,14,REGOUT*%
%TO.N,unconnected-(U4-REGOUT-Pad14)*%
X155576750Y-72125000D03*
%TO.P,U4,15,GND*%
%TO.N,GND*%
X155576750Y-72625000D03*
%TO.P,U4,16,VDD*%
%TO.N,Net-(U4-VDD)*%
X155576750Y-73125000D03*
%TD*%
D17*
%TO.P,R3,1*%
%TO.N,VOUT*%
X157151750Y-74615000D03*
%TO.P,R3,2*%
%TO.N,Net-(U4-VDD)*%
X157151750Y-73975000D03*
%TD*%
D18*
%TO.N,VOUT*%
X153825000Y-78650000D03*
X160100000Y-89675000D03*
X149500000Y-78000000D03*
X155900000Y-117675000D03*
%TO.N,TIM3_0*%
X161850000Y-87725000D03*
X172200000Y-95050000D03*
%TO.N,PB9_SDA*%
X154125000Y-72701750D03*
X155350000Y-76825000D03*
X150600000Y-81425000D03*
%TO.N,TIM3_2*%
X172200000Y-92600000D03*
X159525000Y-85350000D03*
%TO.N,TIM3_1*%
X159100000Y-86200000D03*
X172225000Y-93850000D03*
%TO.N,PB8_SCL*%
X156100000Y-74550000D03*
X156125000Y-77850000D03*
X150650000Y-82675000D03*
%TO.N,VIN*%
X143750000Y-68075000D03*
X183175000Y-100975000D03*
X150175000Y-107400000D03*
X166008008Y-53469079D03*
X149950000Y-86950000D03*
X149650000Y-68275000D03*
%TO.N,GND*%
X145100000Y-67270000D03*
X151052500Y-90447500D03*
X146275000Y-70620000D03*
X150350000Y-70500000D03*
X158950000Y-90075000D03*
%TO.N,SW_STICK*%
X154375000Y-91047500D03*
X158400000Y-117500000D03*
%TO.N,VRx*%
X155475000Y-91475000D03*
X160895000Y-117375000D03*
%TO.N,VRy*%
X155675000Y-86125000D03*
X164650000Y-103000000D03*
%TO.N,Toggle*%
X163600000Y-83050000D03*
X175325000Y-79625000D03*
%TD*%
D19*
%TO.N,VOUT*%
X160100000Y-89774943D02*
X160100000Y-89675000D01*
X156566750Y-75200000D02*
X157151750Y-74615000D01*
X155900000Y-117675000D02*
X159198943Y-114376057D01*
X153851750Y-73850000D02*
X153851750Y-78623250D01*
X153851750Y-78623250D02*
X153825000Y-78650000D01*
X153175000Y-78000000D02*
X153825000Y-78650000D01*
X159198943Y-114376057D02*
X159198943Y-90676000D01*
X153851750Y-73850000D02*
X153851750Y-74700000D01*
X153851750Y-74700000D02*
X154351750Y-75200000D01*
X154351750Y-75200000D02*
X156566750Y-75200000D01*
X149500000Y-78000000D02*
X153175000Y-78000000D01*
X159198943Y-90676000D02*
X160100000Y-89774943D01*
%TO.N,TIM3_0*%
X169175000Y-95050000D02*
X161850000Y-87725000D01*
X172200000Y-95050000D02*
X169175000Y-95050000D01*
%TO.N,PB9_SDA*%
X151900000Y-81425000D02*
X150600000Y-81425000D01*
X155350000Y-77975000D02*
X151900000Y-81425000D01*
X154351750Y-73850000D02*
X154351750Y-72928500D01*
X154351750Y-72928500D02*
X154125000Y-72701750D01*
X155350000Y-76825000D02*
X155350000Y-77975000D01*
%TO.N,TIM3_2*%
X172200000Y-92600000D02*
X164950000Y-85350000D01*
X164950000Y-85350000D02*
X159525000Y-85350000D01*
%TO.N,TIM3_1*%
X159100000Y-86200000D02*
X164550000Y-86200000D01*
X172200000Y-93850000D02*
X172225000Y-93850000D01*
X164550000Y-86200000D02*
X172200000Y-93850000D01*
%TO.N,PB8_SCL*%
X152050000Y-82675000D02*
X150650000Y-82675000D01*
X154851750Y-74351750D02*
X154975000Y-74475000D01*
X156100000Y-74550000D02*
X156025000Y-74475000D01*
X154851750Y-73850000D02*
X154851750Y-74351750D01*
X156125000Y-78600000D02*
X152150000Y-82575000D01*
X156125000Y-77850000D02*
X156125000Y-78600000D01*
X150650000Y-82675000D02*
X150625000Y-82675000D01*
X156025000Y-74475000D02*
X154975000Y-74475000D01*
X152150000Y-82575000D02*
X152050000Y-82675000D01*
%TO.N,Net-(U4-VDD)*%
X157026750Y-73850000D02*
X157151750Y-73975000D01*
X155576750Y-73125000D02*
X156301750Y-73125000D01*
X156301750Y-73125000D02*
X157151750Y-73975000D01*
X155351750Y-73850000D02*
X157026750Y-73850000D01*
%TO.N,VIN*%
X152151000Y-84749000D02*
X149950000Y-86950000D01*
X163175000Y-63100000D02*
X165950000Y-60325000D01*
X149950000Y-86950000D02*
X149950000Y-107175000D01*
X148899000Y-69026000D02*
X149650000Y-68275000D01*
X148899000Y-85899000D02*
X148899000Y-69026000D01*
X183175000Y-100975000D02*
X174250057Y-100975000D01*
X141975000Y-68075000D02*
X139525000Y-65625000D01*
X149950000Y-107175000D02*
X150175000Y-107400000D01*
X165198943Y-84749000D02*
X152151000Y-84749000D01*
X174250057Y-93800114D02*
X165198943Y-84749000D01*
X174250057Y-100975000D02*
X174250057Y-93800114D01*
X149950000Y-86950000D02*
X148899000Y-85899000D01*
X158000000Y-68275000D02*
X163175000Y-63100000D01*
X149650000Y-68275000D02*
X158000000Y-68275000D01*
X139525000Y-65625000D02*
X139525000Y-65075000D01*
X143750000Y-68075000D02*
X141975000Y-68075000D01*
X165950000Y-60325000D02*
X165950000Y-53500000D01*
%TO.N,GND*%
X153351750Y-71400000D02*
X153851750Y-71400000D01*
X138150000Y-69100000D02*
X138150000Y-64275000D01*
X138150000Y-64275000D02*
X139500000Y-62925000D01*
X158950000Y-90075000D02*
X157400000Y-90075000D01*
X155250000Y-72625000D02*
X154851750Y-72226750D01*
X154851750Y-71400000D02*
X155351750Y-71400000D01*
X154351750Y-71400000D02*
X153851750Y-71400000D01*
X140900000Y-71850000D02*
X138150000Y-69100000D01*
X145045000Y-71850000D02*
X140900000Y-71850000D01*
X157027500Y-90447500D02*
X151052500Y-90447500D01*
X155576750Y-72625000D02*
X155250000Y-72625000D01*
X154851750Y-72226750D02*
X154851750Y-71400000D01*
X146275000Y-68445000D02*
X146275000Y-70620000D01*
X157400000Y-90075000D02*
X157027500Y-90447500D01*
X152451750Y-70500000D02*
X150350000Y-70500000D01*
X146275000Y-70620000D02*
X145045000Y-71850000D01*
X153351750Y-71400000D02*
X152451750Y-70500000D01*
X145100000Y-67270000D02*
X145225000Y-67270000D01*
X145100000Y-67270000D02*
X146275000Y-68445000D01*
X154851750Y-71400000D02*
X154351750Y-71400000D01*
%TO.N,SW_STICK*%
X154375000Y-91650000D02*
X151625000Y-94400000D01*
X156775000Y-119125000D02*
X158400000Y-117500000D01*
X156775000Y-119150000D02*
X156775000Y-119125000D01*
X151625000Y-94400000D02*
X151625000Y-118000000D01*
X154375000Y-91047500D02*
X154375000Y-91650000D01*
X151625000Y-118000000D02*
X152775000Y-119150000D01*
X152775000Y-119150000D02*
X156775000Y-119150000D01*
%TO.N,VRx*%
X154125000Y-92950000D02*
X154150000Y-92925000D01*
X154725000Y-118600000D02*
X154125000Y-118000000D01*
X155475000Y-91600000D02*
X155475000Y-91475000D01*
X160895000Y-117375000D02*
X160419000Y-116899000D01*
X160419000Y-116899000D02*
X157851000Y-116899000D01*
X157851000Y-116899000D02*
X156150000Y-118600000D01*
X154125000Y-118000000D02*
X154125000Y-92950000D01*
X154150000Y-92925000D02*
X155475000Y-91600000D01*
X156150000Y-118600000D02*
X154725000Y-118600000D01*
%TO.N,VRy*%
X157650000Y-86125000D02*
X155675000Y-86125000D01*
X158200000Y-86675000D02*
X157650000Y-86125000D01*
X162899000Y-91374000D02*
X158200000Y-86675000D01*
X164650000Y-103000000D02*
X162899000Y-101249000D01*
X162899000Y-101249000D02*
X162899000Y-91374000D01*
%TO.N,Toggle*%
X171900000Y-83050000D02*
X175325000Y-79625000D01*
X163600000Y-83050000D02*
X171900000Y-83050000D01*
X175325000Y-79625000D02*
X175400000Y-79550000D01*
%TD*%
M02*
